# xmcd CD database file
# Copyright (C) 1993-1998 Ti Kan
#
# Track frame offsets:
#	150
#	14496
#	28687
#	42599
#	57903
#	73242
#	87671
#	101884
#	115738
#	129290
#	140735
#	148328
#	173738
#	207741
#	222995
#	242072
#	266538
#	279255
#	312766
#
# Disc length: 4400 seconds
#
# Revision: 1
# Processed by: cddbd v1.4b41PL1 Copyright (c) Steve Scherf et al.
# Submitted via: CDValet v3.31 - Copyright (c) 1997 Greg Leichner
#
DISCID=30112e13
DTITLE=Jim Byrnes - Burning - I Turned My Nights Into Days
DYEAR=1900
DGENRE=
TTITLE0=You Don't Know
TTITLE1=Gamma Lamma
TTITLE2=Hands Of Time
TTITLE3=Let The Good Times Roll
TTITLE4=Stranger Blues
TTITLE5=Hangover Morning
TTITLE6=Next Time You See Me
TTITLE7=Flatfoot Sam
TTITLE8=You Belong To Me
TTITLE9=Hidden Charms
TTITLE10=The Message (Reverend James)
TTITLE11=Love Is A Five Letter Word
TTITLE12=Fire On The Bayou
TTITLE13=Shake Your Money Maker
TTITLE14=Just For A Thrill
TTITLE15=The Chill Is On (The Mellow Freeze)
TTITLE16=Cold Sweat
TTITLE17=Love And Happiness
TTITLE18=Bad Boy
EXTD=
EXTT0=
EXTT1=
EXTT2=
EXTT3=
EXTT4=
EXTT5=
EXTT6=
EXTT7=
EXTT8=
EXTT9=
EXTT10=
EXTT11=
EXTT12=
EXTT13=
EXTT14=
EXTT15=
EXTT16=
EXTT17=
EXTT18=
PLAYORDER=
